<svg width="1106" height="480" viewBox="0 0 1106 480" fill="none" xmlns="http://www.w3.org/2000/svg">
<path d="M0.616738 299.326C-10.2385 198.345 125.117 81.8264 177.117 119.326C229.117 156.826 286.963 111.39 290.617 169.326C290.617 183.238 297.649 228.627 291.16 244.657C289.332 249.174 282.617 254.247 278.24 256.39C269.148 260.841 252.81 264.284 245.796 261.374C243.773 260.535 241.899 259.082 239.735 258.747C206.715 253.629 222.91 273.326 197.245 273.326C137.123 273.326 177.025 290.083 154.933 305.49C150.599 308.513 148.732 314.531 152.158 318.554C164.609 333.177 160.329 319.091 200.098 344.05C201.388 344.859 202.948 345.358 204.466 345.245C227.257 343.538 190.205 315.685 203.553 310.994C206.484 309.965 209.412 308.498 210.976 305.813C236.499 261.987 306.247 283.651 299.287 340.05C299.184 340.88 299.197 341.779 299.333 342.605C317.771 454.02 207.003 479.326 177.117 479.326C74.1167 479.326 0.616738 399.326 0.616738 299.326Z" fill="#FFE9CC"/>
<path d="M309.39 452.826C309.39 443.072 312.721 439.502 316.133 427.266C316.306 426.646 316.396 426.035 316.414 425.391C318.112 365.057 359.142 221.645 377.89 186.826C381.39 180.326 402.89 122.826 426.39 122.826H472.89C492.89 122.826 502.89 169.326 506.39 179.326C509.857 189.232 549.628 242.8 557.669 267.138C557.825 267.609 557.919 268.075 557.977 268.568L572.803 395.084C572.861 395.578 572.966 396.068 573.114 396.542C580.24 419.35 585.987 438.018 589.054 448.206C589.278 448.951 589.39 449.722 589.39 450.501V452.826C589.39 462.397 583.437 471.967 574.16 475.84C573.33 476.186 572.451 476.329 571.552 476.375C563.956 476.761 531.89 479.326 531.89 479.326C477.142 479.326 512.343 451.65 491.727 449.463C489.919 449.271 488.087 449.928 486.761 451.172C469.91 466.982 482.611 486.042 438.635 451.117C437.212 449.986 435.35 449.267 433.542 449.458C414.285 451.488 463.725 476.326 412.89 476.326C409.601 476.326 338.747 476.326 327.736 476.326C326.836 476.326 325.951 476.186 325.12 475.841C315.803 471.968 309.39 462.397 309.39 452.826Z" fill="#FFE9CC"/>
<path d="M847.39 152.326C847.39 165.412 829.766 250.369 815.715 255.576C814.878 255.887 813.96 255.677 813.116 255.384L755.028 235.221C754.274 234.959 753.57 234.591 752.924 234.123C747.788 230.402 723.637 213.111 715.658 211.187C714.155 210.825 713.198 212.126 712.836 213.63L707.602 235.372C707.143 237.275 706.004 238.944 704.398 240.064L685.205 253.439C683.058 254.935 682.762 257.239 685.326 256.721C694.892 254.786 721.066 240.841 729.59 238.623C730.761 238.319 731.956 238.6 733.044 239.128L799.851 271.525C800.939 272.052 802.148 272.266 803.328 272.528C812.836 274.636 818.909 292.738 818.909 299.326C818.909 305.354 813.013 319.981 803.745 322.075C802.304 322.4 800.838 322.735 799.58 323.507L735.777 362.636C733.728 363.893 735.579 366.602 734.864 368.897C734.612 369.703 733.232 369.63 733.032 370.449C732.491 372.656 734.759 376.081 736.58 378.386C737.861 380.007 738.679 381.98 738.679 384.046V405.826L731.39 472.826C731.39 479.326 664.374 479.326 657.517 479.326H618.487C611.631 479.326 597.39 465.826 597.39 459.326V145.826C597.39 139.326 611.631 125.826 618.487 125.826H829.458C843.698 125.826 847.39 142.326 847.39 152.326Z" fill="#FFE9CC"/>
<path d="M1091.9 465.326C1091.9 473.058 1085.63 479.326 1077.9 479.326H890.835C884.407 479.326 878.789 474.918 877.288 468.668C845.266 335.279 850.986 258.984 877.531 133.396C878.895 126.945 884.604 122.326 891.197 122.326H1077.9C1085.63 122.326 1091.9 128.594 1091.9 136.326V185.826C1091.9 193.558 1085.63 199.826 1077.9 199.826H1026.55C1012.38 199.826 1007.18 218.464 1019.3 225.803L1066.02 254.084C1067.9 255.224 1070.06 255.826 1072.26 255.826C1078.55 255.826 1083.78 260.66 1084.27 266.928L1090.45 345.044C1091.16 353.994 1082.84 360.973 1074.15 358.716L1053.53 353.362C1041.84 350.325 1035.36 366.415 1045.9 372.326L1085.27 396.721C1089.39 399.273 1091.9 403.775 1091.9 408.622V465.326ZM1105.4 19.6682C1105.4 20.399 1105.06 21.088 1104.48 21.5367C1098.64 26.0806 1091.45 31.6772 1082.9 38.3265C1073.9 44.9931 1064.23 51.9931 1053.9 59.3265C1043.56 66.3264 1033.56 73.1598 1023.9 79.8265C1016.39 84.9206 1009.74 89.3679 1003.96 93.1681C1001.33 94.8967 999.331 97.5365 998.278 100.502C977.48 159.086 992.014 55.3333 936.397 95.8265C879.397 137.327 936.397 88.8265 936.397 88.8265C942.063 82.4931 948.897 75.1598 956.897 66.8264C964.897 58.1598 972.897 49.3265 980.897 40.3265C988.897 31.3265 982.897 -27.6736 1000.9 15.8264C1016.75 54.1301 1085.71 24.9776 1101.96 17.4662C1103.56 16.7265 1105.4 17.9053 1105.4 19.6682Z" fill="#FFE9CC"/>
</svg>
