<svg width="1106" height="480" viewBox="0 0 1106 480" fill="none" xmlns="http://www.w3.org/2000/svg">
<path d="M0 299.326C0 199.326 70 119.326 176.5 119.326C203.5 119.326 290 129.326 290 169.326C290 186.326 280 199.326 263.5 199.326C260 199.326 253.5 199.326 253.5 199.326C230 186.326 206.5 172.826 180 172.826C113.5 172.826 80 239.326 80 296.326C80 359.326 113.5 422.826 180 422.826C210 422.826 233.5 399.326 260 399.326C273.5 399.326 290 406.326 290 422.826C290 466.326 206.5 479.326 176.5 479.326C73.5 479.326 0 399.326 0 299.326Z" fill="#FFE9CC"/>
<path d="M298 455.826C298 445.826 301.5 442.326 305 429.326C318 385.826 368 219.326 378 192.326C381.5 185.826 391.5 125.826 415 125.826H461.5C481.5 125.826 491.5 172.326 495 182.326C498.5 192.326 504 211.826 511.5 235.826L561.5 398.826C569 422.826 575 442.326 578 452.326V455.826C578 465.826 571.5 475.826 561.5 479.326C558 479.326 545 479.326 545 479.326C488 479.326 501.5 422.326 475 422.326H401.5C375 422.326 388 479.326 335 479.326C331.5 479.326 318 479.326 315 479.326C305 475.826 298 465.826 298 455.826ZM411.5 349.326C411.5 365.826 428 365.826 438 365.826C451.5 365.826 465 365.826 465 345.826L448 295.826C448 292.326 441.5 285.826 438 285.826C425 279.326 411.5 345.826 411.5 349.326Z" fill="#FFE9CC"/>
<path d="M823 152.326C823 165.826 809.5 175.826 796 175.826H676C676 175.826 673 182.326 669.5 185.826L666 192.326V255.826C666 262.326 679.5 272.326 686 272.326H779.5C789.5 272.326 796 292.326 796 299.326C796 305.826 789.5 322.326 779.5 322.326H683C683 322.326 679.5 329.326 676 329.326C673 332.326 666 339.326 666 339.326V455.826C666 462.326 649.5 479.326 643 479.326H606C599.5 479.326 586 465.826 586 459.326V145.826C586 139.326 599.5 125.826 606 125.826H806C819.5 125.826 823 142.326 823 152.326Z" fill="#FFE9CC"/>
<path d="M1043 465.326C1043 473.058 1036.73 479.326 1029 479.326H845C837.268 479.326 831 473.058 831 465.326V136.326C831 128.594 837.268 122.326 845 122.326H1029C1036.73 122.326 1043 128.594 1043 136.326V185.826C1043 193.558 1036.73 199.826 1029 199.826H941.5C933.768 199.826 927.5 206.094 927.5 213.826V241.826C927.5 249.558 933.768 255.826 941.5 255.826H1020.5C1028.23 255.826 1034.5 262.094 1034.5 269.826V319.326C1034.5 327.058 1028.23 333.326 1020.5 333.326H941.5C933.768 333.326 927.5 339.594 927.5 347.326V386.826C927.5 394.558 933.768 400.826 941.5 400.826H1029C1036.73 400.826 1043 407.094 1043 414.826V465.326ZM1056.5 19.1842C1056.5 20.2204 1056.02 21.1978 1055.2 21.834C1049.43 26.324 1042.36 31.8214 1034 38.3264C1025 44.9931 1015.33 51.9931 1005 59.3264C994.667 66.3264 984.667 73.1597 975 79.8264C967.235 85.0956 960.393 89.6725 954.474 93.5573C952.209 95.0435 949.558 95.8264 946.85 95.8264H892.565C889.768 95.8264 887.5 93.5588 887.5 90.7615C887.5 89.5154 887.958 88.3132 888.792 87.3874C894.196 81.3896 900.599 74.536 908 66.8264C916 58.1598 924 49.3264 932 40.3264C937.985 33.5928 943.224 27.3257 947.717 21.5251C950.46 17.9839 954.65 15.8264 959.129 15.8264H1053.14C1055 15.8264 1056.5 17.3297 1056.5 19.1842Z" fill="#FFE9CC"/>
</svg>
