<svg width="18" height="50" viewBox="0 0 18 50" fill="none" xmlns="http://www.w3.org/2000/svg">
<path d="M10.7006 0.438477C10.6696 0.322182 10.6114 0.21065 10.5211 0.128417C10.4309 0.0461844 10.3174 -1.35303e-05 10.2006 -1.35303e-05C10.0837 -1.35303e-05 9.97027 0.0461844 9.88004 0.128417C9.7897 0.21065 9.73152 0.322182 9.70056 0.438477C9.70056 0.438477 9.70056 0.438477 9.70056 0.438477C9.39689 1.59181 9.11628 2.74515 8.85871 3.89849C7.41995 10.3412 6.70056 16.7838 6.70056 23.2265C6.70056 28.459 6.81495 33.6915 7.04374 38.924L10.2006 35.7672C7.86723 35.8692 5.53389 35.994 3.20056 36.1415L-9.05991e-06 35.9406L0.471087 39.4647C1.13045 41.7918 1.99999 43.7347 3.4393 45.6904C4.78933 47.5603 7.34536 49.5375 10.2006 49.2755C14.4244 48.9173 16.1944 45.2369 17.0012 42.578C17.3501 41.4009 17.5789 40.2327 17.691 39.0211C17.3641 38.9564 17.0371 38.8916 16.7101 38.8268C16.3326 39.8578 15.8423 40.9004 15.2897 41.8466C13.9939 44.1623 11.9072 46.002 10.2006 45.6014C7.89423 45.3554 6.39705 41.5343 5.93004 38.3833L3.20056 41.7065C5.53389 41.854 7.86723 41.9788 10.2006 42.0808L13.4891 41.937L13.3574 38.924C13.5862 33.6915 13.7006 28.459 13.7006 23.2265C13.7006 16.7838 12.9812 10.3412 11.5424 3.89849C11.2848 2.74515 11.0042 1.59181 10.7006 0.438477Z" fill="#FFE9CC"/>
</svg>
